<?xml version="1.0" encoding="utf-8"?>
<!-- Generator: Adobe Illustrator 22.0.0, SVG Export Plug-In . SVG Version: 6.00 Build 0)  -->
<svg 
 xmlns="http://www.w3.org/2000/svg"
 xmlns:xlink="http://www.w3.org/1999/xlink"
 width="20px" height="20px">
<path fill-rule="evenodd"  fill="rgb(110, 191, 93)"
 d="M15.000,20.000 L5.000,20.000 C2.239,20.000 -0.000,17.761 -0.000,15.000 L-0.000,5.000 C-0.000,2.239 2.239,-0.000 5.000,-0.000 L15.000,-0.000 C17.761,-0.000 20.000,2.239 20.000,5.000 L20.000,15.000 C20.000,17.761 17.761,20.000 15.000,20.000 ZM16.951,4.986 C16.648,4.693 16.245,4.531 15.816,4.531 C15.387,4.531 14.983,4.693 14.680,4.986 L8.680,10.784 L6.179,8.367 C5.876,8.074 5.473,7.912 5.044,7.912 C4.615,7.912 4.211,8.074 3.908,8.367 C3.605,8.660 3.437,9.050 3.437,9.465 C3.437,9.879 3.605,10.269 3.908,10.562 L7.545,14.077 C7.848,14.370 8.251,14.531 8.680,14.531 C9.109,14.531 9.513,14.370 9.816,14.077 L16.952,7.181 C17.578,6.576 17.578,5.591 16.951,4.986 Z"/>
</svg>