<?xml version="1.0" encoding="utf-8"?>
<!-- Generator: Adobe Illustrator 22.0.0, SVG Export Plug-In . SVG Version: 6.00 Build 0)  -->
<svg 
 xmlns="http://www.w3.org/2000/svg"
 xmlns:xlink="http://www.w3.org/1999/xlink"
 width="15px" height="15px">
<path fill-rule="evenodd"  fill="rgb(120, 133, 160)"
 d="M14.150,6.649 C14.621,6.649 15.002,7.029 15.002,7.500 C15.002,7.971 14.621,8.350 14.150,8.350 L12.814,8.350 L12.814,9.041 L14.150,9.041 C14.621,9.041 15.002,9.421 15.002,9.892 C15.002,10.363 14.621,10.743 14.150,10.743 L12.814,10.743 C12.733,11.849 11.849,12.733 10.743,12.814 L10.743,14.150 C10.743,14.621 10.363,15.002 9.891,15.002 C9.420,15.002 9.041,14.621 9.041,14.150 L9.041,12.814 L8.350,12.814 L8.350,14.150 C8.350,14.621 7.970,15.002 7.499,15.002 C7.028,15.002 6.648,14.621 6.648,14.150 L6.648,12.814 L5.958,12.814 L5.958,14.150 C5.958,14.621 5.578,15.002 5.107,15.002 C4.636,15.002 4.256,14.621 4.256,14.150 L4.256,12.814 C3.150,12.733 2.266,11.849 2.184,10.742 L0.849,10.742 C0.378,10.742 -0.004,10.363 -0.004,9.892 C-0.004,9.421 0.378,9.041 0.849,9.041 L2.185,9.041 L2.185,8.350 L0.849,8.350 C0.378,8.350 -0.004,7.970 -0.004,7.499 C-0.004,7.028 0.378,6.649 0.849,6.649 L2.185,6.649 L2.185,5.958 L0.849,5.958 C0.378,5.958 -0.004,5.578 -0.004,5.107 C-0.004,4.636 0.378,4.256 0.849,4.256 L2.184,4.256 C2.266,3.150 3.149,2.266 4.256,2.184 L4.256,0.849 C4.256,0.378 4.636,-0.004 5.107,-0.004 C5.578,-0.004 5.958,0.378 5.958,0.849 L5.958,2.185 L6.648,2.185 L6.648,0.849 C6.648,0.378 7.028,-0.004 7.499,-0.004 C7.970,-0.004 8.350,0.378 8.350,0.849 L8.350,2.185 L9.041,2.185 L9.041,0.849 C9.041,0.378 9.421,-0.004 9.891,-0.004 C10.362,-0.004 10.742,0.378 10.743,0.849 L10.743,2.185 C11.849,2.266 12.733,3.150 12.814,4.257 L14.150,4.257 C14.621,4.257 15.002,4.637 15.002,5.108 C15.002,5.579 14.621,5.958 14.150,5.958 L12.814,5.958 L12.814,6.649 L14.150,6.649 ZM11.161,5.286 C11.161,4.483 10.516,3.837 9.713,3.837 L5.286,3.837 C4.483,3.837 3.837,4.483 3.837,5.286 L3.837,9.713 C3.837,10.517 4.482,11.162 5.286,11.162 L9.713,11.162 C10.516,11.162 11.161,10.517 11.161,9.713 L11.161,5.286 ZM5.286,9.805 C5.235,9.805 5.193,9.764 5.193,9.713 L5.193,5.286 C5.193,5.235 5.235,5.193 5.286,5.193 L9.713,5.193 C9.764,5.193 9.805,5.235 9.805,5.286 L9.805,9.713 C9.805,9.764 9.764,9.805 9.713,9.805 L5.286,9.805 Z"/>
</svg>