<?xml version="1.0" encoding="utf-8"?>
<!-- Generator: Adobe Illustrator 22.0.0, SVG Export Plug-In . SVG Version: 6.00 Build 0)  -->
<svg 
 xmlns="http://www.w3.org/2000/svg"
 xmlns:xlink="http://www.w3.org/1999/xlink"
 width="20px" height="20px">
<path fill-rule="evenodd"  fill="rgb(245, 132, 31)"
 d="M17.500,6.920 L17.500,17.500 C17.500,18.881 16.381,20.000 15.000,20.000 L2.500,20.000 C1.119,20.000 -0.000,18.881 -0.000,17.500 L-0.000,5.000 C-0.000,3.619 1.119,2.500 2.500,2.500 L13.080,2.500 L10.581,5.000 L2.500,5.000 L2.500,17.500 L15.000,17.500 L15.000,9.420 L17.500,6.920 ZM15.581,1.768 L14.697,2.651 L17.349,5.303 L18.232,4.420 L15.581,1.768 ZM17.349,-0.000 L16.465,0.884 L19.116,3.536 L20.000,2.651 L17.349,-0.000 ZM5.859,11.492 L8.511,14.143 L16.465,6.188 L13.813,3.536 L5.859,11.492 ZM5.000,15.000 L7.500,15.000 L5.000,12.500 L5.000,15.000 Z"/>
</svg>