<?xml version="1.0" encoding="utf-8"?>
<!-- Generator: Adobe Illustrator 22.0.0, SVG Export Plug-In . SVG Version: 6.00 Build 0)  -->
<svg 
 xmlns="http://www.w3.org/2000/svg"
 xmlns:xlink="http://www.w3.org/1999/xlink"
 width="9px" height="16px">
<path fill-rule="evenodd"  fill="rgb(255, 255, 255)"
 d="M5.536,5.000 C4.146,5.000 3.020,3.881 3.020,2.500 C3.020,1.120 4.146,0.000 5.536,0.000 C6.927,0.000 8.053,1.120 8.053,2.500 C8.053,3.881 6.927,5.000 5.536,5.000 ZM4.301,6.097 C5.188,6.276 5.876,6.780 6.235,7.513 C6.673,8.409 6.584,9.554 5.988,10.738 L4.981,12.732 C4.443,13.795 4.757,14.015 4.926,14.131 C4.961,14.156 5.069,14.210 5.335,14.210 C5.818,14.210 6.375,14.027 6.381,14.025 C6.606,13.951 6.858,14.042 6.978,14.247 C7.098,14.454 7.055,14.716 6.875,14.873 C6.822,14.919 5.569,15.999 3.706,15.999 C3.386,15.999 3.062,15.965 2.746,15.902 C1.857,15.722 1.171,15.219 0.812,14.486 C0.373,13.591 0.461,12.447 1.059,11.261 L2.065,9.267 C2.602,8.205 2.287,7.982 2.117,7.865 C2.083,7.841 1.977,7.786 1.712,7.786 C1.229,7.786 0.671,7.972 0.666,7.974 C0.437,8.051 0.188,7.957 0.067,7.751 C-0.052,7.545 -0.010,7.284 0.170,7.125 C0.223,7.080 1.475,5.999 3.337,5.999 C3.658,5.999 3.982,6.032 4.301,6.097 Z"/>
</svg>