<?xml version="1.0" encoding="utf-8"?>
<!-- Generator: Adobe Illustrator 22.0.0, SVG Export Plug-In . SVG Version: 6.00 Build 0)  -->
<svg 
 xmlns="http://www.w3.org/2000/svg"
 xmlns:xlink="http://www.w3.org/1999/xlink"
 width="20px" height="20px">
<path fill-rule="evenodd"  fill="rgb(255, 255, 255)"
 d="M19.091,14.182 L18.347,14.182 L16.364,14.182 L16.364,12.364 L18.949,12.364 L19.091,12.364 C19.593,12.364 20.000,12.771 20.000,13.273 C20.000,13.775 19.593,14.182 19.091,14.182 ZM10.983,12.364 L11.703,11.643 C12.058,11.288 12.058,10.712 11.703,10.357 C11.348,10.002 10.773,10.002 10.418,10.357 L8.145,12.630 C8.142,12.633 8.139,12.637 8.135,12.640 C8.118,12.658 8.101,12.676 8.086,12.696 C8.080,12.703 8.075,12.710 8.069,12.717 C8.057,12.734 8.044,12.750 8.032,12.767 C8.028,12.773 8.025,12.780 8.021,12.786 C8.009,12.805 7.997,12.824 7.986,12.844 C7.984,12.848 7.982,12.853 7.980,12.857 C7.969,12.879 7.958,12.901 7.948,12.924 C7.947,12.927 7.946,12.930 7.945,12.933 C7.935,12.958 7.926,12.982 7.918,13.008 C7.917,13.011 7.917,13.014 7.916,13.018 C7.908,13.043 7.902,13.068 7.897,13.094 C7.895,13.101 7.894,13.109 7.893,13.116 C7.889,13.138 7.886,13.160 7.883,13.182 C7.880,13.212 7.879,13.242 7.879,13.273 C7.879,13.303 7.880,13.333 7.883,13.363 C7.886,13.386 7.889,13.407 7.893,13.429 C7.894,13.436 7.895,13.444 7.897,13.452 C7.902,13.478 7.909,13.503 7.916,13.528 C7.917,13.531 7.917,13.534 7.918,13.537 C7.926,13.563 7.935,13.588 7.945,13.612 C7.946,13.615 7.947,13.618 7.948,13.621 C7.958,13.644 7.969,13.667 7.980,13.689 C7.982,13.693 7.984,13.697 7.986,13.702 C7.997,13.722 8.009,13.741 8.022,13.760 C8.025,13.766 8.029,13.772 8.032,13.778 C8.044,13.796 8.058,13.813 8.071,13.830 C8.076,13.836 8.080,13.843 8.085,13.850 C8.103,13.871 8.122,13.891 8.141,13.911 C8.142,13.912 8.144,13.914 8.145,13.915 L10.418,16.188 C10.595,16.366 10.828,16.455 11.061,16.455 C11.293,16.455 11.526,16.366 11.703,16.188 C12.058,15.833 12.058,15.258 11.703,14.903 L10.983,14.182 L14.545,14.182 L16.364,14.182 L16.364,16.661 L16.364,19.091 C16.364,19.593 15.957,20.000 15.454,20.000 L0.909,20.000 C0.407,20.000 -0.000,19.593 -0.000,19.091 L-0.000,0.909 C-0.000,0.407 0.407,-0.000 0.909,-0.000 L7.879,-0.000 L7.879,1.818 L7.879,3.104 L7.879,7.576 C7.879,8.078 8.286,8.485 8.788,8.485 L13.260,8.485 L14.545,8.485 L16.364,8.485 L16.364,11.397 L16.364,12.364 L14.545,12.364 L10.983,12.364 ZM9.697,6.667 L9.697,3.104 L9.697,0.532 L15.831,6.667 L13.260,6.667 L9.697,6.667 Z"/>
</svg>