<?xml version="1.0" encoding="utf-8"?>
<!-- Generator: Adobe Illustrator 22.0.0, SVG Export Plug-In . SVG Version: 6.00 Build 0)  -->
<svg 
 xmlns="http://www.w3.org/2000/svg"
 xmlns:xlink="http://www.w3.org/1999/xlink"
 width="19px" height="16px">
<path fill-rule="evenodd"  fill="rgb(139, 139, 139)"
 d="M18.028,14.657 C17.713,14.991 17.335,15.158 16.893,15.158 L2.107,15.158 C1.665,15.158 1.287,14.991 0.972,14.657 C0.657,14.323 0.500,13.922 0.500,13.453 L0.500,4.992 C0.795,5.340 1.133,5.650 1.515,5.919 C3.939,7.667 5.603,8.892 6.507,9.596 C6.888,9.894 7.198,10.127 7.436,10.293 C7.673,10.461 7.990,10.631 8.385,10.805 C8.780,10.979 9.148,11.066 9.490,11.066 L9.500,11.066 L9.510,11.066 C9.852,11.066 10.220,10.979 10.615,10.805 C11.010,10.631 11.326,10.461 11.564,10.293 C11.802,10.127 12.112,9.894 12.493,9.596 C13.632,8.722 15.299,7.496 17.495,5.919 C17.877,5.642 18.212,5.333 18.500,4.992 L18.500,13.453 C18.500,13.922 18.343,14.323 18.028,14.657 ZM16.782,4.779 C14.265,6.633 12.697,7.787 12.082,8.242 C12.015,8.292 11.872,8.400 11.655,8.567 C11.437,8.734 11.256,8.869 11.112,8.972 C10.968,9.075 10.794,9.190 10.590,9.318 C10.386,9.446 10.193,9.542 10.012,9.606 C9.832,9.670 9.664,9.702 9.510,9.702 L9.500,9.702 L9.490,9.702 C9.336,9.702 9.168,9.670 8.988,9.606 C8.807,9.542 8.614,9.446 8.410,9.318 C8.206,9.191 8.032,9.075 7.888,8.972 C7.744,8.869 7.563,8.734 7.345,8.567 C7.128,8.400 6.985,8.292 6.918,8.242 C6.309,7.788 5.432,7.139 4.287,6.298 C3.142,5.456 2.455,4.950 2.228,4.779 C1.812,4.481 1.421,4.071 1.052,3.548 C0.684,3.026 0.500,2.541 0.500,2.094 C0.500,1.540 0.639,1.078 0.917,0.708 C1.195,0.339 1.591,0.154 2.107,0.154 L16.893,0.154 C17.328,0.154 17.705,0.321 18.023,0.655 C18.341,0.989 18.500,1.391 18.500,1.859 C18.500,2.421 18.336,2.957 18.008,3.468 C17.680,3.980 17.271,4.417 16.782,4.779 Z"/>
</svg>