<?xml version="1.0" encoding="utf-8"?>
<!-- Generator: Adobe Illustrator 22.0.0, SVG Export Plug-In . SVG Version: 6.00 Build 0)  -->
<svg 
 xmlns="http://www.w3.org/2000/svg"
 xmlns:xlink="http://www.w3.org/1999/xlink"
 width="12px" height="15px">
<path fill-rule="evenodd"  fill="rgb(255, 255, 255)"
 d="M10.947,15.000 L1.053,15.000 C0.474,15.000 -0.000,14.500 -0.000,13.889 L-0.000,1.111 C-0.000,0.500 0.474,-0.000 1.053,-0.000 L8.316,-0.000 L8.316,3.333 C8.316,3.944 8.789,4.444 9.368,4.444 L12.000,4.444 L12.000,13.889 C12.000,14.500 11.526,15.000 10.947,15.000 ZM3.158,5.555 L1.579,5.555 L1.579,7.222 L3.158,7.222 L3.158,5.555 ZM3.158,8.333 L1.579,8.333 L1.579,10.000 L3.158,10.000 L3.158,8.333 ZM3.158,11.111 L1.579,11.111 L1.579,12.778 L3.158,12.778 L3.158,11.111 ZM10.421,6.111 L4.210,6.111 L4.210,6.667 L10.421,6.667 L10.421,6.111 ZM10.421,8.889 L4.210,8.889 L4.210,9.444 L10.421,9.444 L10.421,8.889 ZM10.421,11.667 L4.210,11.667 L4.210,12.222 L10.421,12.222 L10.421,11.667 ZM2.631,12.222 L2.105,12.222 L2.105,11.667 L2.631,11.667 L2.631,12.222 ZM2.631,9.444 L2.105,9.444 L2.105,8.889 L2.631,8.889 L2.631,9.444 ZM2.631,6.667 L2.105,6.667 L2.105,6.111 L2.631,6.111 L2.631,6.667 ZM8.842,3.333 L8.842,-0.000 L12.000,3.889 L9.368,3.889 C9.105,3.889 8.842,3.667 8.842,3.333 Z"/>
</svg>