<?xml version="1.0" encoding="utf-8"?>
<!-- Generator: Adobe Illustrator 22.0.0, SVG Export Plug-In . SVG Version: 6.00 Build 0)  -->
<svg version="1.1" id="Capa_1" xmlns="http://www.w3.org/2000/svg" xmlns:xlink="http://www.w3.org/1999/xlink" x="0px" y="0px"
	 viewBox="0 0 756.9 241.2" style="enable-background:new 0 0 756.9 241.2;" xml:space="preserve">
<style type="text/css">
	.st0{fill:#FFFFFF;}
	.st1{fill:#76BC21;}
</style>
<g>
	<g>
		<path class="st0" d="M317.7,103.2c-26,0-39,14-39,42V185v2v54.2h16.4V187h22.6c26.1,0,39.2-13.9,39.2-41.8
			C356.9,117.2,343.8,103.2,317.7,103.2z M336.2,163.6c-3.6,4.6-9.8,6.9-18.5,6.9h-22.6v-25.3c0-8.5,1.4-14.6,4.3-18.4
			c3.5-4.7,9.6-7.1,18.3-7.1c8.7,0,14.9,2.3,18.5,7.1c2.8,3.8,4.3,9.9,4.3,18.4C340.5,153.6,339,159.7,336.2,163.6z"/>
		<path class="st0" d="M524.2,145.1c0-27.9-13-41.9-39-41.9c-26.1,0-39.2,14-39.2,42c0,27.9,13.1,41.8,39.2,41.8h39v-16.5h-39
			c-13.2,0-20.6-5.7-22.3-17.2h61.3V145.1z M462.9,136.8c1.7-11.3,9.1-17,22.3-17c13.1,0,20.4,5.7,22.1,17H462.9z"/>
		<path class="st0" d="M266.1,128.3c0-16.7-11.3-25.1-34-25.1c-13,0-22.3,3-28,9c-3.9,4.2-5.9,9.6-5.9,16.1h16.4
			c0-2.5,0.7-4.3,2.2-5.4c2.5-2.1,7.6-3.1,15.2-3.1c7.7,0,12.8,1,15.3,3.1c1.5,1.2,2.2,3,2.2,5.5c0,2.4-0.7,4.2-2.2,5.3
			c-2.5,2.1-7.6,3.1-15.3,3.1c-13,0-22.3,3-28,9c-3.9,4.2-5.9,9.6-5.9,16.1c0,6.5,2,11.9,5.9,16.1c5.7,6,15,9,28,9
			c22.7,0,34-8.4,34-25.1V128.3L266.1,128.3z M249.6,161.9c0,2.5-0.7,4.4-2.2,5.5c-2.5,2.1-7.6,3.1-15.3,3.1c-7.6,0-12.6-1-15.2-3.1
			c-1.5-1.1-2.2-3-2.2-5.5c0-2.5,0.7-4.3,2.2-5.5c2.5-2,7.6-3,15.2-3c6.9,0,12.7-0.8,17.5-2.5V161.9z"/>
		<path class="st0" d="M18.6,122.8c2.5-2.1,7.6-3.1,15.2-3.1c7.6,0,12.6,1,15.2,3.1c1.5,1.1,2.2,2.9,2.2,5.4h16.4
			c0-16.7-11.3-25.1-33.8-25.1c-22.5,0-33.8,8.3-33.8,25c0,10,4,16.9,12,20.8c4.5,2.2,11.6,3.6,21.3,4.3c7.8,0.5,12.8,1.4,15,2.5
			c1.9,1.1,2.8,3.1,2.8,6.2c0,2.5-0.7,4.4-2.2,5.6c-2.5,2.1-7.6,3.2-15.2,3.2c-7.6,0-12.6-1-15.2-3.1c-1.5-1.2-2.2-3-2.2-5.5H0
			c0,16.8,11.3,25.2,33.8,25.2c22.5,0,33.8-8.4,33.8-25.3c0-10-4-16.9-11.9-21c-4.6-2.2-11.7-3.7-21.3-4.3
			c-7.9-0.5-12.9-1.3-14.9-2.3c-2-1-3.1-3.1-3.1-6.2C16.4,125.8,17.2,124,18.6,122.8z"/>
		<rect x="78.5" y="103.2" class="st0" width="16.4" height="83.8"/>
		<path class="st0" d="M146.9,103.2c-26.1,0-39.2,14-39.2,42V187h16.4v-41.8c0-8.5,1.4-14.6,4.2-18.4c3.6-4.7,9.8-7.1,18.5-7.1
			c8.7,0,14.9,2.4,18.3,7.1c2.8,3.8,4.3,9.9,4.3,18.4V187H186v-41.8C186,117.2,173,103.2,146.9,103.2z"/>
		<path class="st0" d="M387.1,122.8c2.5-2.1,7.6-3.1,15.2-3.1c7.6,0,12.6,1,15.2,3.1c1.5,1.1,2.2,2.9,2.2,5.4H436
			c0-16.7-11.3-25.1-33.8-25.1c-22.5,0-33.8,8.3-33.8,25c0,10,4,16.9,12,20.8c4.5,2.2,11.6,3.6,21.3,4.3c7.8,0.5,12.8,1.4,15,2.5
			c1.9,1.1,2.8,3.1,2.8,6.2c0,2.5-0.7,4.4-2.2,5.6c-2.5,2.1-7.6,3.2-15.2,3.2c-7.6,0-12.6-1-15.2-3.1c-1.5-1.2-2.2-3-2.2-5.5h-16.4
			c0,16.8,11.3,25.2,33.8,25.2c22.5,0,33.8-8.4,33.8-25.3c0-10-3.9-16.9-11.9-21c-4.6-2.2-11.7-3.7-21.3-4.3
			c-7.9-0.5-12.9-1.3-14.9-2.3c-2.1-1-3.1-3.1-3.1-6.2C384.9,125.8,385.6,124,387.1,122.8z"/>
	</g>
	<g>
		<path class="st1" d="M328.7,233.6h-8.6c-5.8,0-8.7-3.1-8.7-9.2c0-6.2,2.9-9.3,8.7-9.3c5.8,0,8.6,3.1,8.6,9.2v1.8h-13.5
			c0.4,2.6,2,3.8,4.9,3.8h8.6V233.6z M325,222.5c-0.4-2.5-2-3.8-4.9-3.8c-2.9,0-4.5,1.3-4.9,3.8H325z"/>
		<path class="st1" d="M355.1,233.6h-3.6v-9.2c0-1.9-0.3-3.2-0.9-4.1c-0.8-1-2.1-1.6-4-1.6c-1.9,0-3.3,0.5-4.1,1.6
			c-0.6,0.8-0.9,2.2-0.9,4.1v9.2h-3.6v-9.2c0-6.2,2.9-9.3,8.7-9.3c5.8,0,8.6,3.1,8.6,9.3V233.6z"/>
		<path class="st1" d="M380.4,233.6h-8.6c-5.8,0-8.7-3.1-8.7-9.2c0-6.2,2.9-9.3,8.7-9.3c5.8,0,8.6,3.1,8.6,9.2v1.8h-13.5
			c0.4,2.6,2,3.8,4.9,3.8h8.6V233.6z M376.7,222.5c-0.4-2.5-2-3.8-4.9-3.8c-2.9,0-4.5,1.3-4.9,3.8H376.7z"/>
		<path class="st1" d="M397,218.7c-2.3,0-3.8,0.3-4.7,0.9c-0.6,0.5-0.9,1.2-0.9,2.2v11.8h-3.6v-11.8c0-4.5,3.1-6.7,9.3-6.7V218.7z"
			/>
		<path class="st1" d="M421.6,234.1c0,4.5-2.9,6.8-8.6,6.8h-6.9v-3.6h6.9c2.2,0,3.6-0.4,4.4-1.2c0.4-0.4,0.6-1.1,0.6-2v-0.5h-5
			c-5.8,0-8.7-3.1-8.7-9.2c0-6.2,2.9-9.3,8.7-9.3c5.7,0,8.6,3.1,8.6,9.3V234.1z M417.9,230v-5.6c0-1.9-0.3-3.2-0.9-4.1
			c-0.8-1-2.1-1.6-4-1.6c-1.9,0-3.3,0.5-4.1,1.6c-0.6,0.8-0.9,2.2-0.9,4.1c0,1.9,0.3,3.2,0.9,4.1c0.8,1,2.2,1.5,4.1,1.5H417.9z"/>
		<path class="st1" d="M434.3,211.4h-3.6v-3.6h3.6V211.4z M430.6,215.1h3.6v18.5h-3.6V215.1z"/>
		<path class="st1" d="M458.3,228c0,3.7-2.5,5.6-7.5,5.6c-2.9,0-4.9-0.7-6.2-2c-0.9-0.9-1.3-2.1-1.3-3.6c0-1.4,0.4-2.6,1.3-3.6
			c1.3-1.3,3.3-2,6.2-2c1.7,0,2.8-0.2,3.4-0.7c0.3-0.3,0.5-0.6,0.5-1.2c0-0.6-0.2-1-0.5-1.2c-0.6-0.5-1.7-0.7-3.4-0.7
			c-1.7,0-2.8,0.2-3.4,0.7c-0.3,0.2-0.5,0.7-0.5,1.2h-3.6c0-1.4,0.4-2.6,1.3-3.5c1.3-1.3,3.3-2,6.2-2c5,0,7.5,1.8,7.5,5.5l0,0V228z
			 M454.6,228v-2.4c-1.1,0.4-2.4,0.6-3.9,0.6c-1.7,0-2.8,0.2-3.3,0.7c-0.3,0.3-0.5,0.7-0.5,1.2c0,0.6,0.2,1,0.5,1.2
			c0.6,0.5,1.7,0.7,3.3,0.7c1.7,0,2.8-0.2,3.4-0.7C454.5,229,454.6,228.6,454.6,228z"/>
		<path class="st1" d="M491.2,220.6h-3.6c0-0.5-0.2-0.9-0.5-1.2c-0.5-0.5-1.7-0.7-3.4-0.7c-1.7,0-2.8,0.2-3.3,0.7
			c-0.3,0.3-0.5,0.7-0.5,1.2c0,0.7,0.2,1.1,0.7,1.4c0.4,0.2,1.5,0.4,3.3,0.5c2.1,0.1,3.7,0.4,4.7,0.9c1.7,0.9,2.6,2.4,2.6,4.6
			c0,3.7-2.5,5.6-7.5,5.6c-5,0-7.5-1.9-7.5-5.6h3.6c0,0.6,0.2,1,0.5,1.3c0.6,0.5,1.7,0.7,3.3,0.7c1.7,0,2.8-0.2,3.4-0.7
			c0.3-0.3,0.5-0.7,0.5-1.3c0-0.7-0.2-1.1-0.6-1.4c-0.5-0.3-1.6-0.5-3.3-0.6c-2.1-0.1-3.7-0.4-4.7-0.9c-1.8-0.8-2.7-2.4-2.7-4.6
			c0-3.7,2.5-5.5,7.5-5.5C488.7,215.1,491.2,216.9,491.2,220.6z"/>
		<path class="st1" d="M500,233.6h-3.7V230h3.7V233.6z"/>
		<path class="st1" d="M514.9,233.6c-6.2,0-9.3-2.2-9.3-6.7v-19.1h3.6v19.1c0,0.9,0.3,1.7,1,2.1c0.8,0.6,2.4,0.9,4.7,0.9V233.6z"/>
		<path class="st1" d="M522.7,233.6H519V230h3.7V233.6z"/>
	</g>
	<path class="st1" d="M576.4,170.3c5.3-14.6,19-22.3,30.7-17.3c11.6,5.1,16.8,21,11.6,35.7c-0.6,1.8-1.4,3.4-2.3,5h38.4
		c68.1,0,102.2-32.2,102.2-96.7c0-64.7-34-97-102.1-97c-15.3,0-28.8,1.6-40.6,4.9c0.2,0.6,0.5,1.1,0.7,1.7c5.7,14.4,1,30.6-10.6,36
		c-10.9,5.2-23.9-1-30.1-13.9C560.1,44.7,553,67.5,553,97v56l0,40.7l23.6,0C573.8,186.9,573.5,178.4,576.4,170.3z M726,99.6
		c0,8.8-3,15.9-6.7,15.9c-3.7,0-6.7-7.1-6.7-15.9c0-8.8,3-15.9,6.7-15.9C723,83.7,726,90.9,726,99.6z M699.7,100
		c0,10.2-4.5,18.4-10.1,18.4c-5.6,0-10.1-8.2-10.1-18.4c0-10.2,4.5-18.4,10.1-18.4C695.2,81.6,699.7,89.9,699.7,100z M664.9,97.9
		c0,13.4-6.4,24.3-14.2,24.3c-7.8,0-14.2-10.9-14.2-24.3c0-13.4,6.3-24.3,14.2-24.3C658.6,73.7,664.9,84.5,664.9,97.9z M629,38.4
		c-4.1-11.5-0.7-24.3,7.6-28.6c8.3-4.3,18.3,1.4,22.3,12.9c4.1,11.5,0.7,24.3-7.6,28.6C643.1,55.6,633.1,49.9,629,38.4z M673,48.7
		c-2.8-10.7-0.5-22.8,5.2-26.8c5.6-4.1,12.5,1.3,15.2,12.1c2.8,10.7,0.5,22.8-5.2,26.8C682.6,64.8,675.8,59.4,673,48.7z M708.3,55.2
		c-1.9-9.3-0.3-19.7,3.4-23.2c3.7-3.5,8.3,1.1,10.1,10.4c1.8,9.3,0.3,19.7-3.4,23.2C714.7,69.2,710.1,64.5,708.3,55.2z M575,97.9
		c0-15.7,10.2-28.4,22.7-28.4c12.5,0,22.7,12.7,22.7,28.4c0,15.7-10.2,28.5-22.7,28.5C585.2,126.3,575,113.6,575,97.9z M719.3,132
		c3.8,3.3,5.5,13.5,3.8,22.9c-1.7,9.4-6.2,14.4-10,11.1c-3.8-3.3-5.5-13.5-3.8-23C711.1,133.7,715.5,128.8,719.3,132z M689.6,137.5
		c5.7,3.8,8.2,15.7,5.7,26.5c-2.6,10.9-9.3,16.6-15,12.9c-5.7-3.8-8.2-15.7-5.7-26.5C677.1,139.4,683.9,133.7,689.6,137.5z
		 M652.4,144.4c8.4,4,12.1,16.7,8.3,28.3c-3.8,11.6-13.6,17.7-22,13.7c-8.4-4-12.1-16.7-8.3-28.3C634.2,146.5,644,140.4,652.4,144.4
		z"/>
</g>
</svg>
