<?xml version="1.0" encoding="utf-8"?>
<!-- Generator: Adobe Illustrator 22.0.0, SVG Export Plug-In . SVG Version: 6.00 Build 0)  -->
<svg 
 xmlns="http://www.w3.org/2000/svg"
 xmlns:xlink="http://www.w3.org/1999/xlink"
 width="14px" height="20px">
<path fill-rule="evenodd"  fill="rgb(139, 139, 139)"
 d="M12.136,5.277 C12.136,2.367 9.832,0.000 7.000,0.000 C4.167,0.000 1.864,2.367 1.864,5.277 L1.864,7.934 C0.711,9.216 -0.000,10.925 -0.000,12.808 L-0.000,18.633 C-0.000,19.388 0.596,20.000 1.331,20.000 L12.669,20.000 C13.404,20.000 14.000,19.388 14.000,18.633 L14.000,12.808 C14.000,10.925 13.289,9.216 12.136,7.934 L12.136,5.277 L12.136,5.277 ZM7.989,13.296 L7.989,14.964 C7.989,15.526 7.546,15.981 7.000,15.981 C6.454,15.981 6.011,15.526 6.011,14.964 L6.011,13.296 C5.608,12.985 5.344,12.495 5.344,11.938 C5.344,10.999 6.085,10.237 7.000,10.237 C7.915,10.237 8.656,10.999 8.656,11.938 C8.656,12.495 8.392,12.985 7.989,13.296 ZM9.899,6.268 C9.014,5.853 8.035,5.617 7.000,5.617 C5.965,5.617 4.985,5.853 4.101,6.268 L4.101,5.277 C4.101,3.635 5.401,2.299 7.000,2.299 C8.599,2.299 9.899,3.635 9.899,5.277 L9.899,6.268 L9.899,6.268 Z"/>
</svg>