<?xml version="1.0" encoding="utf-8"?>
<!-- Generator: Adobe Illustrator 16.0.0, SVG Export Plug-In . SVG Version: 6.00 Build 0)  -->
<!DOCTYPE svg PUBLIC "-//W3C//DTD SVG 1.1//EN" "http://www.w3.org/Graphics/SVG/1.1/DTD/svg11.dtd">
<svg version="1.1" id="Layer_1" xmlns="http://www.w3.org/2000/svg" xmlns:xlink="http://www.w3.org/1999/xlink" x="0px" y="0px"
	 width="250px" height="250px" viewBox="0 0 250 250" enable-background="new 0 0 250 250" xml:space="preserve">
<g>
	<g>
		<rect fill="#E0E1E6" width="250" height="250"/>
	</g>
	<g>
		<g>
			<path id="SVGID_1_" fill="#FFFFFF" d="M125,19c58.543,0,106.001,47.458,106.001,106c0,58.543-47.458,106.001-106.001,106.001
				c-58.542,0-106-47.458-106-106.001C19,66.458,66.458,19,125,19L125,19z"/>
		</g>
	</g>
	<g>
		<g>
			<path id="SVGID_3_" fill="#E0E1E6" d="M126.001,66c19.882,0,36,16.117,36,36c0,19.882-16.118,36-36,36c-19.884,0-36-16.119-36-36
				C90,82.117,106.117,66,126.001,66L126.001,66z"/>
		</g>
	</g>
	<g>
		<g>
			<path id="SVGID_5_" fill="#E0E1E6" d="M64,197v-18c0,0,4.251-36,39-39h42c0,0,33.251,3.75,40.001,37.001l1,19.999
				C186.001,197,128.251,247.25,64,197L64,197z"/>
		</g>
	</g>
</g>
</svg>
